<svg xmlns="http://www.w3.org/2000/svg" width="196.9237px" height="31.804399999999998px" viewBox="0 -1057.9 8561.9 1382.8" xmlns:xlink="http://www.w3.org/1999/xlink" style="color:#242424" color="#242424"><defs><path id="MJX-4-NCM-I-1D444" d="M306-24C335-24 366-19 399-10C396-48 395-72 395-81C395-156 424-194 481-194C542-194 589-145 612-100C637-48 650-14 650 2C650 11 645 16 635 16C628 16 623 12 620 3C605-43 564-90 508-90C457-90 450-49 442 6C526 39 597 96 654 178C711 260 740 345 740 434C740 513 717 577 670 628C623 679 561 705 484 705C431 705 378 692 325 665C217 612 138 528 87 415C62 358 49 302 49 245C49 88 151-24 306-24M645 466C645 405 630 335 600 254C565 161 511 92 436 48C432 70 426 90 418 108C405 138 381 153 346 153C291 153 241 103 241 48C241 39 242 30 244 23C177 54 144 117 144 213C144 255 152 306 169 366C204 493 267 583 358 636C401 660 441 672 478 672C588 672 645 581 645 466M346 123C383 123 402 96 402 43C402 34 399 29 393 27C365 15 338 9 312 9C284 9 270 22 270 48C270 86 308 123 346 123Z"></path><path id="MJX-4-NCM-I-1D456" d="M284 621C284 648 271 661 244 661C216 661 188 633 188 605C188 578 202 565 229 565C257 565 284 593 284 621M259 138C237 59 205 19 164 19C151 19 144 28 144 47C144 64 173 150 232 306C240 329 244 347 244 360C244 409 210 445 161 445C118 445 84 420 59 369C39 328 29 301 29 288C29 279 34 275 45 275C58 275 60 281 64 295C87 375 118 415 158 415C171 415 178 406 178 387C178 373 175 357 168 338C145 275 121 208 101 155C86 115 78 88 78 74C78 25 114-11 162-11C205-11 239 14 264 64C283 103 293 130 293 145C293 154 288 159 277 159C274 159 259 150 259 138Z"></path><path id="MJX-4-NCM-N-2C" d="M139 106C107 106 86 82 86 50C86 20 109-5 139-5C153-5 165-1 174 8L175 0C175-63 154-117 112-160C105-168 101-174 101-178C101-188 105-193 114-193C123-193 135-181 152-158C186-110 203-57 203 0C203 53 185 106 139 106Z"></path><path id="MJX-4-NCM-I-1D461" d="M330 419C330 428 320 433 299 433L218 433C244 537 257 591 257 595C257 616 246 626 225 626C202 626 188 613 182 587L145 433L56 433C34 433 23 432 23 411C23 400 33 395 54 395L135 395C86 200 62 97 62 84C62 28 100-11 156-11C194-11 227 6 256 41C280 70 297 98 308 125C312 136 314 142 314 145C314 154 309 159 299 159C291 159 285 154 281 143C247 60 206 19 157 19C140 19 131 33 131 60C131 75 133 91 137 107L208 395L297 395C323 395 330 397 330 419Z"></path><path id="MJX-4-NCM-N-3D" d="M698 367L80 367C64 367 56 359 56 344C56 329 64 321 80 321L698 321C714 321 722 329 722 344C722 356 711 367 698 367M698 179L80 179C64 179 56 171 56 156C56 141 64 133 80 133L698 133C714 133 722 141 722 156C722 169 711 179 698 179Z"></path><path id="MJX-4-NCM-SO-2211" d="M56 713L417 216L67-217C60-225 57-231 57-235C57-245 67-250 88-250L913-250L1001 5L967 5C954-33 933-66 902-95C825-166 719-188 565-188L152-188L490 232C497 240 500 246 500 250C500 254 498 259 493 266L175 702L560 702C682 702 764 691 854 644C907 616 944 571 967 510L1001 510L913 750L88 750C57 750 56 746 56 713Z"></path><path id="MJX-4-NCM-I-1D447" d="M344 631C344 628 343 621 340 611L208 83C204 68 200 59 197 55C188 44 154 39 94 39C63 39 49 42 49 16C49 5 56 0 69 0C120 0 192 4 235 3L317 2C331 2 386 0 403 0C420 0 428 8 428 24C428 34 416 39 391 39C339 39 309 41 300 46C297 48 295 52 295 58L430 603C433 617 436 626 439 629C443 635 467 638 511 638C566 638 604 634 623 625C642 616 652 595 652 561C652 543 649 517 644 483C642 475 641 469 641 464C641 453 646 447 657 447C666 447 672 456 675 473L702 645C703 650 704 656 704 662C704 672 694 677 673 677L125 677C99 677 97 674 89 655L30 481C27 472 25 466 24 462C24 452 29 447 40 447C48 447 55 455 60 470C85 543 110 588 133 607C159 628 209 638 282 638L321 638C332 638 344 639 344 631Z"></path><path id="MJX-4-NCM-I-1D458" d="M409 353C409 327 423 314 450 314C485 314 508 345 508 379C508 418 476 445 437 445C392 445 344 415 291 356C250 311 217 282 190 269L291 679C289 688 287 694 274 694C242 694 166 685 154 684C139 682 132 675 132 660C132 650 141 645 159 645C178 645 204 646 204 632L59 43C56 32 55 25 55 21C55 0 66-11 87-11C104-11 117-3 124 12C129 21 147 92 179 226C231 221 286 196 286 146C286 131 279 101 279 91C279 34 316-11 373-11C431-11 470 41 490 145C490 154 485 159 475 159C466 159 460 152 457 138C435 59 408 19 375 19C357 19 348 33 348 61C348 77 360 131 360 147C360 204 314 239 221 253C244 269 270 292 298 322C326 352 346 371 359 382C386 404 412 415 435 415C445 415 453 413 459 409C432 404 409 379 409 353Z"></path><path id="MJX-4-NCM-I-1D6FE" d="M524 378C537 403 543 416 543 417C543 426 538 431 527 431C520 431 515 428 512 422C477 357 436 265 388 146C384 212 371 274 349 331C320 405 275 442 214 442C151 442 96 400 68 361C35 314 18 279 18 257C18 248 26 243 43 243L48 250C65 302 94 335 135 349C163 358 185 363 201 363C305 363 357 281 357 116C357 77 353 45 345 20C311-91 294-162 294-193C294-208 300-215 311-215C323-215 335-194 346-153C363-89 375-32 382 18C385 33 387 46 390 55C426 167 471 275 524 378Z"></path><path id="MJX-4-NCM-N-2212" d="M698 270L80 270C64 270 56 263 56 250C56 237 64 230 80 230L698 230C714 230 722 237 722 250C722 262 710 270 698 270Z"></path><path id="MJX-4-NCM-I-1D45F" d="M436 374C436 416 395 442 351 442C302 442 261 419 227 372C217 411 183 442 136 442C95 442 65 410 44 345C34 312 29 293 29 287C29 278 34 273 45 273C50 273 53 274 56 276C61 285 64 292 65 299C83 375 106 413 133 413C150 413 159 399 159 371C159 358 154 331 144 290L87 63C84 50 78 24 78 19C78-1 89-11 110-11C130-11 143-1 150 19L169 91C180 134 187 162 190 175L221 303C223 311 231 324 244 343C271 381 302 413 351 413C363 413 373 411 382 406C352 397 337 378 337 351C337 325 351 312 378 312C411 312 436 341 436 374Z"></path><path id="MJX-4-NCM-N-28" d="M318-248C327-248 332-243 332-234C332-231 330-227 327-223C275-183 233-117 202-26C175 53 161 131 161 208L161 292C161 369 175 447 202 526C233 617 275 683 327 723C330 726 332 730 332 734C332 743 327 748 318 748C317 748 314 747 311 745C251 699 201 631 160 540C121 453 101 371 101 292L101 208C101 129 121 47 160-40C201-131 251-199 311-245C314-247 317-248 318-248Z"></path><path id="MJX-4-NCM-N-29" d="M78-245C138-199 188-131 229-40C268 47 288 129 288 208L288 292C288 371 268 453 229 540C188 631 138 699 78 745C75 747 72 748 71 748C62 748 57 743 57 734C57 730 59 726 62 723C114 683 156 617 187 526C214 447 228 369 228 292L228 208C228 131 214 53 187-26C156-117 114-183 62-223C59-227 57-231 57-234C57-243 62-248 71-248C72-248 75-247 78-245Z"></path></defs><g stroke="currentColor" fill="currentColor" stroke-width="0" transform="scale(1,-1)"><g data-mml-node="math" data-latex="\textstyle Q_{i,t}=\sum_{k=t}^{T_i}\gamma^{k-t}r_k^{(i)}"><g data-mml-node="mstyle" data-latex="\textstyle Q_{i,t}=\sum_{k=t}^{T_i}\gamma^{k-t}r_k^{(i)}"><g data-mml-node="msub" data-latex="Q_{i,t}"><g data-mml-node="mi" data-latex="Q"><use data-c="1D444" xlink:href="#MJX-4-NCM-I-1D444"></use></g><g data-mml-node="TeXAtom" transform="translate(824,-150) scale(0.707)" data-latex="{i,t}" data-mjx-texclass="ORD"><g data-mml-node="mi" data-latex="i"><use data-c="1D456" xlink:href="#MJX-4-NCM-I-1D456"></use></g><g data-mml-node="mo" data-latex="," transform="translate(345,0)"><use data-c="2C" xlink:href="#MJX-4-NCM-N-2C"></use></g><g data-mml-node="mi" data-latex="t" transform="translate(623,0)"><use data-c="1D461" xlink:href="#MJX-4-NCM-I-1D461"></use></g></g></g><g data-mml-node="mo" data-latex="=" transform="translate(1847.6,0)"><use data-c="3D" xlink:href="#MJX-4-NCM-N-3D"></use></g><g data-mml-node="munderover" data-latex="\sum_{k=t}^{T_i}" transform="translate(2903.3,0)"><g data-mml-node="mo" data-latex="\sum"><use data-c="2211" xlink:href="#MJX-4-NCM-SO-2211"></use></g><g data-mml-node="TeXAtom" transform="translate(1089,477.1) scale(0.707)" data-latex="{T_i}" data-mjx-texclass="ORD"><g data-mml-node="msub" data-latex="T_i"><g data-mml-node="mi" data-latex="T"><use data-c="1D447" xlink:href="#MJX-4-NCM-I-1D447"></use></g><g data-mml-node="mi" transform="translate(617,-150) scale(0.707)" data-latex="i"><use data-c="1D456" xlink:href="#MJX-4-NCM-I-1D456"></use></g></g></g><g data-mml-node="TeXAtom" transform="translate(1089,-305.2) scale(0.707)" data-latex="{k=t}" data-mjx-texclass="ORD"><g data-mml-node="mi" data-latex="k"><use data-c="1D458" xlink:href="#MJX-4-NCM-I-1D458"></use></g><g data-mml-node="mo" data-latex="=" transform="translate(521,0)"><use data-c="3D" xlink:href="#MJX-4-NCM-N-3D"></use></g><g data-mml-node="mi" data-latex="t" transform="translate(1299,0)"><use data-c="1D461" xlink:href="#MJX-4-NCM-I-1D461"></use></g></g></g><g data-mml-node="msup" data-latex="\gamma^{k-t}" transform="translate(5382.8,0)"><g data-mml-node="mi" data-latex="\gamma"><use data-c="1D6FE" xlink:href="#MJX-4-NCM-I-1D6FE"></use></g><g data-mml-node="TeXAtom" transform="translate(627.3,363) scale(0.707)" data-latex="{k-t}" data-mjx-texclass="ORD"><g data-mml-node="mi" data-latex="k"><use data-c="1D458" xlink:href="#MJX-4-NCM-I-1D458"></use></g><g data-mml-node="mo" data-latex="-" transform="translate(521,0)"><use data-c="2212" xlink:href="#MJX-4-NCM-N-2212"></use></g><g data-mml-node="mi" data-latex="t" transform="translate(1299,0)"><use data-c="1D461" xlink:href="#MJX-4-NCM-I-1D461"></use></g></g></g><g data-mml-node="msubsup" data-latex="r_k^{(i)}" transform="translate(7233.9,0)"><g data-mml-node="mi" data-latex="r"><use data-c="1D45F" xlink:href="#MJX-4-NCM-I-1D45F"></use></g><g data-mml-node="TeXAtom" transform="translate(484,529) scale(0.707)" data-latex="{(i)}" data-mjx-texclass="ORD"><g data-mml-node="mo" data-latex="("><use data-c="28" xlink:href="#MJX-4-NCM-N-28"></use></g><g data-mml-node="mi" data-latex="i" transform="translate(389,0)"><use data-c="1D456" xlink:href="#MJX-4-NCM-I-1D456"></use></g><g data-mml-node="mo" data-latex=")" transform="translate(734,0)"><use data-c="29" xlink:href="#MJX-4-NCM-N-29"></use></g></g><g data-mml-node="mi" transform="translate(484,-317.1) scale(0.707)" data-latex="k"><use data-c="1D458" xlink:href="#MJX-4-NCM-I-1D458"></use></g></g></g></g></g></svg>