<?xml version="1.0" encoding="utf-8" standalone="no"?>
<!DOCTYPE svg PUBLIC "-//W3C//DTD SVG 1.1//EN"
  "http://www.w3.org/Graphics/SVG/1.1/DTD/svg11.dtd">
<svg xmlns:xlink="http://www.w3.org/1999/xlink" width="561.6pt" height="223.2pt" viewBox="0 0 561.6 223.2" xmlns="http://www.w3.org/2000/svg" version="1.1">
 <metadata>
  <rdf:RDF xmlns:dc="http://purl.org/dc/elements/1.1/" xmlns:cc="http://creativecommons.org/ns#" xmlns:rdf="http://www.w3.org/1999/02/22-rdf-syntax-ns#">
   <cc:Work>
    <dc:type rdf:resource="http://purl.org/dc/dcmitype/StillImage"/>
    <dc:date>2026-09-29T18:47:11.863600</dc:date>
    <dc:format>image/svg+xml</dc:format>
    <dc:creator>
     <cc:Agent>
      <dc:title>Matplotlib v3.11.1, https://matplotlib.org/</dc:title>
     </cc:Agent>
    </dc:creator>
   </cc:Work>
  </rdf:RDF>
 </metadata>
 <defs>
  <style type="text/css">*{stroke-linejoin: round; stroke-linecap: butt}</style>
 </defs>
 <g id="figure_1">
  <g id="patch_1">
   <path d="M 0 223.2 
L 561.6 223.2 
L 561.6 0 
L 0 0 
z
" style="fill: #ffffff"/>
  </g>
  <g id="axes_1">
   <g id="patch_2">
    <path d="M 50.544 160.704 
L 268.533474 160.704 
L 268.533474 15.624 
L 50.544 15.624 
z
" style="fill: #ffffff"/>
   </g>
   <g id="matplotlib.axis_1">
    <g id="xtick_1">
     <g id="line2d_1">
      <defs>
       <path id="m7bc3789393" d="M 0 0 
L 0 3.5 
" style="stroke: #000000; stroke-width: 0.8"/>
      </defs>
      <g>
       <use xlink:href="#m7bc3789393" x="77.874349" y="160.704" style="stroke: #000000; stroke-width: 0.8"/>
      </g>
     </g>
     <g id="text_1">
      <text style="font-size: 8px; font-family: 'DejaVu Sans'" transform="translate(58.752687 179.504678) rotate(-18)">Base</text>
     </g>
    </g>
    <g id="xtick_2">
     <g id="line2d_2">
      <g>
       <use xlink:href="#m7bc3789393" x="132.317274" y="160.704" style="stroke: #000000; stroke-width: 0.8"/>
      </g>
     </g>
     <g id="text_2">
      <text style="font-size: 8px; font-family: 'DejaVu Sans'" transform="translate(97.115624 184.729977) rotate(-18)">Variant A</text>
     </g>
    </g>
    <g id="xtick_3">
     <g id="line2d_3">
      <g>
       <use xlink:href="#m7bc3789393" x="186.7602" y="160.704" style="stroke: #000000; stroke-width: 0.8"/>
      </g>
     </g>
     <g id="text_3">
      <text style="font-size: 8px; font-family: 'DejaVu Sans'" transform="translate(151.543095 184.734998) rotate(-18)">Variant B</text>
     </g>
    </g>
    <g id="xtick_4">
     <g id="line2d_4">
      <g>
       <use xlink:href="#m7bc3789393" x="241.203125" y="160.704" style="stroke: #000000; stroke-width: 0.8"/>
      </g>
     </g>
     <g id="text_4">
      <text style="font-size: 8px; font-family: 'DejaVu Sans'" transform="translate(201.711022 186.12403) rotate(-18)">Candidate</text>
     </g>
    </g>
   </g>
   <g id="matplotlib.axis_2">
    <g id="ytick_1">
     <g id="line2d_5">
      <path d="M 50.544 160.704 
L 268.533474 160.704 
" clip-path="url(#p723f523c25)" style="fill: none; stroke-dasharray: 0.8,1.32; stroke-dashoffset: 0; stroke: #dddddd; stroke-width: 0.8"/>
     </g>
     <g id="line2d_6">
      <defs>
       <path id="mf0df1868b7" d="M 0 0 
L -3.5 0 
" style="stroke: #000000; stroke-width: 0.8"/>
      </defs>
      <g>
       <use xlink:href="#mf0df1868b7" x="50.544" y="160.704" style="stroke: #000000; stroke-width: 0.8"/>
      </g>
     </g>
     <g id="text_5">
      <text style="font-size: 8px; font-family: 'DejaVu Sans'; text-anchor: end" x="43.544" y="163.743063" transform="rotate(-0 43.544 163.743063)">0</text>
     </g>
    </g>
    <g id="ytick_2">
     <g id="line2d_7">
      <path d="M 50.544 133.069714 
L 268.533474 133.069714 
" clip-path="url(#p723f523c25)" style="fill: none; stroke-dasharray: 0.8,1.32; stroke-dashoffset: 0; stroke: #dddddd; stroke-width: 0.8"/>
     </g>
     <g id="line2d_8">
      <g>
       <use xlink:href="#mf0df1868b7" x="50.544" y="133.069714" style="stroke: #000000; stroke-width: 0.8"/>
      </g>
     </g>
     <g id="text_6">
      <text style="font-size: 8px; font-family: 'DejaVu Sans'; text-anchor: end" x="43.544" y="136.108777" transform="rotate(-0 43.544 136.108777)">20</text>
     </g>
    </g>
    <g id="ytick_3">
     <g id="line2d_9">
      <path d="M 50.544 105.435429 
L 268.533474 105.435429 
" clip-path="url(#p723f523c25)" style="fill: none; stroke-dasharray: 0.8,1.32; stroke-dashoffset: 0; stroke: #dddddd; stroke-width: 0.8"/>
     </g>
     <g id="line2d_10">
      <g>
       <use xlink:href="#mf0df1868b7" x="50.544" y="105.435429" style="stroke: #000000; stroke-width: 0.8"/>
      </g>
     </g>
     <g id="text_7">
      <text style="font-size: 8px; font-family: 'DejaVu Sans'; text-anchor: end" x="43.544" y="108.474491" transform="rotate(-0 43.544 108.474491)">40</text>
     </g>
    </g>
    <g id="ytick_4">
     <g id="line2d_11">
      <path d="M 50.544 77.801143 
L 268.533474 77.801143 
" clip-path="url(#p723f523c25)" style="fill: none; stroke-dasharray: 0.8,1.32; stroke-dashoffset: 0; stroke: #dddddd; stroke-width: 0.8"/>
     </g>
     <g id="line2d_12">
      <g>
       <use xlink:href="#mf0df1868b7" x="50.544" y="77.801143" style="stroke: #000000; stroke-width: 0.8"/>
      </g>
     </g>
     <g id="text_8">
      <text style="font-size: 8px; font-family: 'DejaVu Sans'; text-anchor: end" x="43.544" y="80.840205" transform="rotate(-0 43.544 80.840205)">60</text>
     </g>
    </g>
    <g id="ytick_5">
     <g id="line2d_13">
      <path d="M 50.544 50.166857 
L 268.533474 50.166857 
" clip-path="url(#p723f523c25)" style="fill: none; stroke-dasharray: 0.8,1.32; stroke-dashoffset: 0; stroke: #dddddd; stroke-width: 0.8"/>
     </g>
     <g id="line2d_14">
      <g>
       <use xlink:href="#mf0df1868b7" x="50.544" y="50.166857" style="stroke: #000000; stroke-width: 0.8"/>
      </g>
     </g>
     <g id="text_9">
      <text style="font-size: 8px; font-family: 'DejaVu Sans'; text-anchor: end" x="43.544" y="53.20592" transform="rotate(-0 43.544 53.20592)">80</text>
     </g>
    </g>
    <g id="ytick_6">
     <g id="line2d_15">
      <path d="M 50.544 22.532571 
L 268.533474 22.532571 
" clip-path="url(#p723f523c25)" style="fill: none; stroke-dasharray: 0.8,1.32; stroke-dashoffset: 0; stroke: #dddddd; stroke-width: 0.8"/>
     </g>
     <g id="line2d_16">
      <g>
       <use xlink:href="#mf0df1868b7" x="50.544" y="22.532571" style="stroke: #000000; stroke-width: 0.8"/>
      </g>
     </g>
     <g id="text_10">
      <text style="font-size: 8px; font-family: 'DejaVu Sans'; text-anchor: end" x="43.544" y="25.571634" transform="rotate(-0 43.544 25.571634)">100</text>
     </g>
    </g>
    <g id="text_11">
     <text style="font-size: 9px; font-family: 'DejaVu Sans'; text-anchor: middle" x="22.111891" y="88.164" transform="rotate(-90 22.111891 88.164)">Success rate (%)</text>
    </g>
   </g>
   <g id="patch_3">
    <path d="M 60.452612 160.704 
L 95.296085 160.704 
L 95.296085 128.776243 
L 60.452612 128.776243 
z
" clip-path="url(#p723f523c25)" style="fill: url(#he526ba9a2f); stroke: #777777; stroke-width: 0.6; stroke-linejoin: miter"/>
   </g>
   <g id="patch_4">
    <path d="M 114.895538 160.704 
L 149.73901 160.704 
L 149.73901 49.707868 
L 114.895538 49.707868 
z
" clip-path="url(#p723f523c25)" style="fill: url(#h1e8c68fc1c); stroke: #777777; stroke-width: 0.6; stroke-linejoin: miter"/>
   </g>
   <g id="patch_5">
    <path d="M 169.338463 160.704 
L 204.181936 160.704 
L 204.181936 68.74121 
L 169.338463 68.74121 
z
" clip-path="url(#p723f523c25)" style="fill: url(#h699fce916c); stroke: #777777; stroke-width: 0.6; stroke-linejoin: miter"/>
   </g>
   <g id="patch_6">
    <path d="M 223.781389 160.704 
L 258.624861 160.704 
L 258.624861 73.36902 
L 223.781389 73.36902 
z
" clip-path="url(#p723f523c25)" style="fill: url(#h0dbb15cc1c); stroke: #777777; stroke-width: 0.6; stroke-linejoin: miter"/>
   </g>
   <g id="patch_7">
    <path d="M 50.544 160.704 
L 50.544 15.624 
" style="fill: none; stroke: #000000; stroke-width: 0.65; stroke-linejoin: miter; stroke-linecap: square"/>
   </g>
   <g id="patch_8">
    <path d="M 268.533474 160.704 
L 268.533474 15.624 
" style="fill: none; stroke: #000000; stroke-width: 0.65; stroke-linejoin: miter; stroke-linecap: square"/>
   </g>
   <g id="patch_9">
    <path d="M 50.544 160.704 
L 268.533474 160.704 
" style="fill: none; stroke: #000000; stroke-width: 0.65; stroke-linejoin: miter; stroke-linecap: square"/>
   </g>
   <g id="patch_10">
    <path d="M 50.544 15.624 
L 268.533474 15.624 
" style="fill: none; stroke: #000000; stroke-width: 0.65; stroke-linejoin: miter; stroke-linecap: square"/>
   </g>
   <g id="text_12">
    <text style="font-size: 8px; font-family: 'DejaVu Sans'; text-anchor: middle" x="77.874349" y="126.012815" transform="rotate(-0 77.874349 126.012815)">23.1</text>
   </g>
   <g id="text_13">
    <text style="font-size: 8px; font-family: 'DejaVu Sans'; text-anchor: middle" x="132.317274" y="46.94444" transform="rotate(-0 132.317274 46.94444)">80.3</text>
   </g>
   <g id="text_14">
    <text style="font-size: 8px; font-family: 'DejaVu Sans'; text-anchor: middle" x="186.7602" y="65.977781" transform="rotate(-0 186.7602 65.977781)">66.6</text>
   </g>
   <g id="text_15">
    <text style="font-size: 8px; font-family: 'DejaVu Sans'; text-anchor: middle" x="241.203125" y="70.605591" transform="rotate(-0 241.203125 70.605591)">63.2</text>
   </g>
   <g id="text_16">
    <g id="patch_11">
     <path d="M 54.953737 29.017025 
L 104.437487 29.017025 
L 104.437487 18.9364 
L 54.953737 18.9364 
z
" style="fill: #e1e5e6; stroke: #777777; stroke-width: 0.6; stroke-linejoin: miter"/>
    </g>
    <text style="font-size: 8px; font-family: 'DejaVu Sans'; text-anchor: start" x="55.993737" y="26.05515" transform="rotate(-0 55.993737 26.05515)">Backbone A</text>
   </g>
  </g>
  <g id="axes_2">
   <g id="patch_12">
    <path d="M 329.570526 160.704 
L 547.56 160.704 
L 547.56 15.624 
L 329.570526 15.624 
z
" style="fill: #ffffff"/>
   </g>
   <g id="matplotlib.axis_3">
    <g id="xtick_5">
     <g id="line2d_17">
      <g>
       <use xlink:href="#m7bc3789393" x="356.900875" y="160.704" style="stroke: #000000; stroke-width: 0.8"/>
      </g>
     </g>
     <g id="text_17">
      <text style="font-size: 8px; font-family: 'DejaVu Sans'" transform="translate(337.779213 179.504678) rotate(-18)">Base</text>
     </g>
    </g>
    <g id="xtick_6">
     <g id="line2d_18">
      <g>
       <use xlink:href="#m7bc3789393" x="411.3438" y="160.704" style="stroke: #000000; stroke-width: 0.8"/>
      </g>
     </g>
     <g id="text_18">
      <text style="font-size: 8px; font-family: 'DejaVu Sans'" transform="translate(376.142151 184.729977) rotate(-18)">Variant A</text>
     </g>
    </g>
    <g id="xtick_7">
     <g id="line2d_19">
      <g>
       <use xlink:href="#m7bc3789393" x="465.786726" y="160.704" style="stroke: #000000; stroke-width: 0.8"/>
      </g>
     </g>
     <g id="text_19">
      <text style="font-size: 8px; font-family: 'DejaVu Sans'" transform="translate(430.569621 184.734998) rotate(-18)">Variant B</text>
     </g>
    </g>
    <g id="xtick_8">
     <g id="line2d_20">
      <g>
       <use xlink:href="#m7bc3789393" x="520.229651" y="160.704" style="stroke: #000000; stroke-width: 0.8"/>
      </g>
     </g>
     <g id="text_20">
      <text style="font-size: 8px; font-family: 'DejaVu Sans'" transform="translate(480.737548 186.12403) rotate(-18)">Candidate</text>
     </g>
    </g>
   </g>
   <g id="matplotlib.axis_4">
    <g id="ytick_7">
     <g id="line2d_21">
      <path d="M 329.570526 160.704 
L 547.56 160.704 
" clip-path="url(#p0a22bc73ff)" style="fill: none; stroke-dasharray: 0.8,1.32; stroke-dashoffset: 0; stroke: #dddddd; stroke-width: 0.8"/>
     </g>
     <g id="line2d_22">
      <g>
       <use xlink:href="#mf0df1868b7" x="329.570526" y="160.704" style="stroke: #000000; stroke-width: 0.8"/>
      </g>
     </g>
     <g id="text_21">
      <text style="font-size: 8px; font-family: 'DejaVu Sans'; text-anchor: end" x="322.570526" y="163.743063" transform="rotate(-0 322.570526 163.743063)">0</text>
     </g>
    </g>
    <g id="ytick_8">
     <g id="line2d_23">
      <path d="M 329.570526 133.069714 
L 547.56 133.069714 
" clip-path="url(#p0a22bc73ff)" style="fill: none; stroke-dasharray: 0.8,1.32; stroke-dashoffset: 0; stroke: #dddddd; stroke-width: 0.8"/>
     </g>
     <g id="line2d_24">
      <g>
       <use xlink:href="#mf0df1868b7" x="329.570526" y="133.069714" style="stroke: #000000; stroke-width: 0.8"/>
      </g>
     </g>
     <g id="text_22">
      <text style="font-size: 8px; font-family: 'DejaVu Sans'; text-anchor: end" x="322.570526" y="136.108777" transform="rotate(-0 322.570526 136.108777)">20</text>
     </g>
    </g>
    <g id="ytick_9">
     <g id="line2d_25">
      <path d="M 329.570526 105.435429 
L 547.56 105.435429 
" clip-path="url(#p0a22bc73ff)" style="fill: none; stroke-dasharray: 0.8,1.32; stroke-dashoffset: 0; stroke: #dddddd; stroke-width: 0.8"/>
     </g>
     <g id="line2d_26">
      <g>
       <use xlink:href="#mf0df1868b7" x="329.570526" y="105.435429" style="stroke: #000000; stroke-width: 0.8"/>
      </g>
     </g>
     <g id="text_23">
      <text style="font-size: 8px; font-family: 'DejaVu Sans'; text-anchor: end" x="322.570526" y="108.474491" transform="rotate(-0 322.570526 108.474491)">40</text>
     </g>
    </g>
    <g id="ytick_10">
     <g id="line2d_27">
      <path d="M 329.570526 77.801143 
L 547.56 77.801143 
" clip-path="url(#p0a22bc73ff)" style="fill: none; stroke-dasharray: 0.8,1.32; stroke-dashoffset: 0; stroke: #dddddd; stroke-width: 0.8"/>
     </g>
     <g id="line2d_28">
      <g>
       <use xlink:href="#mf0df1868b7" x="329.570526" y="77.801143" style="stroke: #000000; stroke-width: 0.8"/>
      </g>
     </g>
     <g id="text_24">
      <text style="font-size: 8px; font-family: 'DejaVu Sans'; text-anchor: end" x="322.570526" y="80.840205" transform="rotate(-0 322.570526 80.840205)">60</text>
     </g>
    </g>
    <g id="ytick_11">
     <g id="line2d_29">
      <path d="M 329.570526 50.166857 
L 547.56 50.166857 
" clip-path="url(#p0a22bc73ff)" style="fill: none; stroke-dasharray: 0.8,1.32; stroke-dashoffset: 0; stroke: #dddddd; stroke-width: 0.8"/>
     </g>
     <g id="line2d_30">
      <g>
       <use xlink:href="#mf0df1868b7" x="329.570526" y="50.166857" style="stroke: #000000; stroke-width: 0.8"/>
      </g>
     </g>
     <g id="text_25">
      <text style="font-size: 8px; font-family: 'DejaVu Sans'; text-anchor: end" x="322.570526" y="53.20592" transform="rotate(-0 322.570526 53.20592)">80</text>
     </g>
    </g>
    <g id="ytick_12">
     <g id="line2d_31">
      <path d="M 329.570526 22.532571 
L 547.56 22.532571 
" clip-path="url(#p0a22bc73ff)" style="fill: none; stroke-dasharray: 0.8,1.32; stroke-dashoffset: 0; stroke: #dddddd; stroke-width: 0.8"/>
     </g>
     <g id="line2d_32">
      <g>
       <use xlink:href="#mf0df1868b7" x="329.570526" y="22.532571" style="stroke: #000000; stroke-width: 0.8"/>
      </g>
     </g>
     <g id="text_26">
      <text style="font-size: 8px; font-family: 'DejaVu Sans'; text-anchor: end" x="322.570526" y="25.571634" transform="rotate(-0 322.570526 25.571634)">100</text>
     </g>
    </g>
    <g id="text_27">
     <text style="font-size: 9px; font-family: 'DejaVu Sans'; text-anchor: middle" x="301.138417" y="88.164" transform="rotate(-90 301.138417 88.164)">Success rate (%)</text>
    </g>
   </g>
   <g id="patch_13">
    <path d="M 339.479139 160.704 
L 374.322611 160.704 
L 374.322611 138.217639 
L 339.479139 138.217639 
z
" clip-path="url(#p0a22bc73ff)" style="fill: url(#he526ba9a2f); stroke: #777777; stroke-width: 0.6; stroke-linejoin: miter"/>
   </g>
   <g id="patch_14">
    <path d="M 393.922064 160.704 
L 428.765537 160.704 
L 428.765537 56.341195 
L 393.922064 56.341195 
z
" clip-path="url(#p0a22bc73ff)" style="fill: url(#h1e8c68fc1c); stroke: #777777; stroke-width: 0.6; stroke-linejoin: miter"/>
   </g>
   <g id="patch_15">
    <path d="M 448.36499 160.704 
L 483.208462 160.704 
L 483.208462 62.198463 
L 448.36499 62.198463 
z
" clip-path="url(#p0a22bc73ff)" style="fill: url(#h699fce916c); stroke: #777777; stroke-width: 0.6; stroke-linejoin: miter"/>
   </g>
   <g id="patch_16">
    <path d="M 502.807915 160.704 
L 537.651388 160.704 
L 537.651388 54.001034 
L 502.807915 54.001034 
z
" clip-path="url(#p0a22bc73ff)" style="fill: url(#h0dbb15cc1c); stroke: #777777; stroke-width: 0.6; stroke-linejoin: miter"/>
   </g>
   <g id="patch_17">
    <path d="M 329.570526 160.704 
L 329.570526 15.624 
" style="fill: none; stroke: #000000; stroke-width: 0.65; stroke-linejoin: miter; stroke-linecap: square"/>
   </g>
   <g id="patch_18">
    <path d="M 547.56 160.704 
L 547.56 15.624 
" style="fill: none; stroke: #000000; stroke-width: 0.65; stroke-linejoin: miter; stroke-linecap: square"/>
   </g>
   <g id="patch_19">
    <path d="M 329.570526 160.704 
L 547.56 160.704 
" style="fill: none; stroke: #000000; stroke-width: 0.65; stroke-linejoin: miter; stroke-linecap: square"/>
   </g>
   <g id="patch_20">
    <path d="M 329.570526 15.624 
L 547.56 15.624 
" style="fill: none; stroke: #000000; stroke-width: 0.65; stroke-linejoin: miter; stroke-linecap: square"/>
   </g>
   <g id="text_28">
    <text style="font-size: 8px; font-family: 'DejaVu Sans'; text-anchor: middle" x="356.900875" y="135.45421" transform="rotate(-0 356.900875 135.45421)">16.3</text>
   </g>
   <g id="text_29">
    <text style="font-size: 8px; font-family: 'DejaVu Sans'; text-anchor: middle" x="411.3438" y="53.577766" transform="rotate(-0 411.3438 53.577766)">75.5</text>
   </g>
   <g id="text_30">
    <text style="font-size: 8px; font-family: 'DejaVu Sans'; text-anchor: middle" x="465.786726" y="59.435034" transform="rotate(-0 465.786726 59.435034)">71.3</text>
   </g>
   <g id="text_31">
    <text style="font-size: 8px; font-family: 'DejaVu Sans'; text-anchor: middle" x="520.229651" y="51.237606" transform="rotate(-0 520.229651 51.237606)">77.2</text>
   </g>
   <g id="text_32">
    <g id="patch_21">
     <path d="M 333.980263 29.017025 
L 383.480263 29.017025 
L 383.480263 18.9364 
L 333.980263 18.9364 
z
" style="fill: #e1e5e6; stroke: #777777; stroke-width: 0.6; stroke-linejoin: miter"/>
    </g>
    <text style="font-size: 8px; font-family: 'DejaVu Sans'; text-anchor: start" x="335.020263" y="26.05515" transform="rotate(-0 335.020263 26.05515)">Backbone B</text>
   </g>
  </g>
  <g id="text_33">
   <text style="font-size: 6.8px; font-family: 'DejaVu Sans'; text-anchor: end; fill: #777777" x="554.8608" y="218.888006" transform="rotate(-0 554.8608 218.888006)">SYNTHETIC DATA · style demonstration</text>
  </g>
 </g>
 <defs>
  <clipPath id="p723f523c25">
   <rect x="50.544" y="15.624" width="217.989474" height="145.08"/>
  </clipPath>
  <clipPath id="p0a22bc73ff">
   <rect x="329.570526" y="15.624" width="217.989474" height="145.08"/>
  </clipPath>
 </defs>
 <defs>
  <pattern id="he526ba9a2f" patternUnits="userSpaceOnUse" x="0" y="0" width="72" height="72">
   <rect x="0" y="0" width="73" height="73" fill="#eee4cc"/>
   <path d="M -36 36 
L 36 -36 
M -32 40 
L 40 -32 
M -28 44 
L 44 -28 
M -24 48 
L 48 -24 
M -20 52 
L 52 -20 
M -16 56 
L 56 -16 
M -12 60 
L 60 -12 
M -8 64 
L 64 -8 
M -4 68 
L 68 -4 
M 0 72 
L 72 0 
M 4 76 
L 76 4 
M 8 80 
L 80 8 
M 12 84 
L 84 12 
M 16 88 
L 88 16 
M 20 92 
L 92 20 
M 24 96 
L 96 24 
M 28 100 
L 100 28 
M 32 104 
L 104 32 
M 36 108 
L 108 36 
" style="fill: #777777; stroke: #777777; stroke-width: 1.0; stroke-linecap: butt; stroke-linejoin: miter"/>
  </pattern>
  <pattern id="h1e8c68fc1c" patternUnits="userSpaceOnUse" x="0" y="0" width="72" height="72">
   <rect x="0" y="0" width="73" height="73" fill="#c6b9b9"/>
   <path d="M 2 72 
L 2 0 
M 6 72 
L 6 0 
M 10 72 
L 10 0 
M 14 72 
L 14 0 
M 18 72 
L 18 0 
M 22 72 
L 22 0 
M 26 72 
L 26 0 
M 30 72 
L 30 0 
M 34 72 
L 34 0 
M 38 72 
L 38 0 
M 42 72 
L 42 0 
M 46 72 
L 46 0 
M 50 72 
L 50 0 
M 54 72 
L 54 0 
M 58 72 
L 58 0 
M 62 72 
L 62 0 
M 66 72 
L 66 0 
M 70 72 
L 70 0 
" style="fill: #777777; stroke: #777777; stroke-width: 1.0; stroke-linecap: butt; stroke-linejoin: miter"/>
  </pattern>
  <pattern id="h699fce916c" patternUnits="userSpaceOnUse" x="0" y="0" width="72" height="72">
   <rect x="0" y="0" width="73" height="73" fill="#b8b4b3"/>
   <path d="M -36 36 
L 36 108 
M -30 30 
L 42 102 
M -24 24 
L 48 96 
M -18 18 
L 54 90 
M -12 12 
L 60 84 
M -6 6 
L 66 78 
M 0 0 
L 72 72 
M 6 -6 
L 78 66 
M 12 -12 
L 84 60 
M 18 -18 
L 90 54 
M 24 -24 
L 96 48 
M 30 -30 
L 102 42 
M 36 -36 
L 108 36 
" style="fill: #777777; stroke: #777777; stroke-width: 1.0; stroke-linecap: butt; stroke-linejoin: miter"/>
  </pattern>
  <pattern id="h0dbb15cc1c" patternUnits="userSpaceOnUse" x="0" y="0" width="72" height="72">
   <rect x="0" y="0" width="73" height="73" fill="#9793a4"/>
   <path d="M 0 70 
L 72 70 
M 0 66 
L 72 66 
M 0 62 
L 72 62 
M 0 58 
L 72 58 
M 0 54 
L 72 54 
M 0 50 
L 72 50 
M 0 46 
L 72 46 
M 0 42 
L 72 42 
M 0 38 
L 72 38 
M 0 34 
L 72 34 
M 0 30 
L 72 30 
M 0 26 
L 72 26 
M 0 22 
L 72 22 
M 0 18 
L 72 18 
M 0 14 
L 72 14 
M 0 10 
L 72 10 
M 0 6 
L 72 6 
M 0 2 
L 72 2 
" style="fill: #777777; stroke: #777777; stroke-width: 1.0; stroke-linecap: butt; stroke-linejoin: miter"/>
  </pattern>
 </defs>
</svg>
